<?xml version="1.0" encoding="utf-8"?>
<svg viewBox="69.434 57.671 524.994 416.606" width="524.994" height="416.606" xmlns="http://www.w3.org/2000/svg">
  <g transform="matrix(1, 0, 0, 1, -18.075117, -12.323944)">
    <path d="M 398.86 332.41 C 398.86 332.437 397.735 333.285 397.255 333.586 C 397.04 334.789 396.688 335.961 396.212 337.086 C 404.45 338.555 415.974 339.226 423.067 334.519 C 425.953 332.621 428.633 337.25 425.766 339.148 C 417.074 344.922 403.567 343.934 393.828 342.09 L 393.828 342.086 C 393.355 342.004 392.921 341.769 392.593 341.418 C 391.257 342.703 389.894 343.984 388.531 345.273 L 388.531 345.269 C 392.191 349.887 396.613 353.84 401.613 356.957 C 407.3 360.02 415.465 359.395 421.738 359.34 C 423.211 359.34 424.41 360.539 424.41 362.016 C 424.41 363.493 423.211 364.688 421.738 364.688 C 415 364.739 404.808 365.676 398.894 361.586 C 393.613 357.942 388.804 353.657 384.582 348.828 C 383.754 349.524 382.93 350.219 382.097 350.891 C 389.183 355.41 393.359 362.071 399.722 367.395 L 399.726 367.391 C 408.562 373.95 420.183 375.418 430.378 371.266 C 433.589 370.012 434.976 375.172 431.796 376.403 L 431.792 376.403 C 427.425 378.11 422.765 378.946 418.073 378.864 C 429.108 381.551 440.745 378.25 448.725 370.168 C 457.737 359.738 456.003 349.168 453.913 336.656 C 453.815 336.055 453.929 335.437 454.233 334.906 C 454.585 327.871 447.28 320.703 444.389 314.781 C 442.011 309.996 440.014 304.969 437.542 300.203 C 434.936 294.563 430.733 289.812 425.456 286.535 C 421.014 284.316 416.385 283.356 412.03 281.133 L 412.026 281.133 C 411.592 281.117 411.166 280.992 410.799 280.762 C 407.225 278.957 403.37 277.774 399.401 277.262 C 397.214 276.824 387.182 274.375 385.921 276.031 C 382.597 280.121 379.785 284.602 377.554 289.375 C 379.699 288.95 381.867 288.657 384.05 288.5 C 387.503 288.258 387.476 293.606 384.05 293.848 C 372.445 294.965 361.308 298.996 351.675 305.563 C 351.445 306.012 351.089 306.383 350.656 306.637 C 348.925 308.126 347.578 310.004 346.718 312.118 C 345.3 314.743 343.695 317.254 342.195 319.848 C 340.253 323.813 337.867 327.547 335.081 330.973 C 338.335 331.801 341.343 333.399 343.851 335.629 C 346.316 338.036 342.538 341.833 340.081 339.426 C 337.39 337.391 334.23 336.055 330.894 335.547 C 327.839 334.825 324.847 333.876 321.933 332.712 C 320.917 333.973 319.956 335.227 318.992 336.512 C 319.206 336.618 319.429 336.747 319.66 336.883 L 319.663 336.883 C 320.777 337.419 321.917 337.891 323.085 338.301 C 324.484 338.723 325.296 340.176 324.929 341.591 C 324.746 342.278 324.289 342.856 323.671 343.204 C 323.054 343.551 322.32 343.637 321.64 343.438 C 320.328 342.93 318.968 342.423 317.679 341.833 C 317.035 341.567 316.476 341.137 315.859 340.817 C 315.597 341.216 315.3 341.618 315.031 342.02 L 315.035 342.02 C 314.437 343.294 313.152 344.102 311.746 344.083 C 311.703 344.348 311.675 344.614 311.664 344.883 C 311.644 345.415 311.535 345.938 311.343 346.434 C 315.14 347.395 318.859 349.059 322.632 350.094 L 322.628 350.098 C 327.984 351.665 333.136 353.856 337.98 356.626 C 339.176 357.403 339.551 358.985 338.828 360.212 C 338.105 361.442 336.543 361.887 335.281 361.223 C 330.305 358.465 325.019 356.309 319.531 354.805 C 315.922 353.844 312.23 351.864 308.484 351.247 C 307.726 352.223 306.855 353.102 305.89 353.872 C 304.98 354.54 302.949 355.622 302.468 356.544 L 302.468 356.547 C 302.078 357.415 301.582 358.235 300.996 358.981 C 300.906 359.13 300.797 359.262 300.675 359.38 C 301.507 360.321 302.359 361.255 303.191 362.192 L 303.191 362.196 C 308.691 359.231 315.023 358.188 321.183 359.235 C 327.339 360.282 332.972 363.356 337.183 367.969 C 339.718 371.384 341.304 375.407 341.785 379.633 C 350.691 372.145 339.195 357.512 334.785 350.692 C 332.886 347.802 337.515 345.103 339.382 347.989 C 343.261 353.927 349.121 362.618 350.136 370.673 C 355.523 367.205 359.816 362.279 362.515 356.466 C 365.781 349.244 363.508 344.138 362.144 336.915 C 361.5 333.548 366.664 332.103 367.308 335.47 L 367.308 335.474 C 368.918 340.314 369.847 345.357 370.062 350.451 C 370 351.099 369.89 351.744 369.738 352.377 C 377.332 348.267 384.183 342.916 390.011 336.545 C 391.406 335.045 392.367 333.197 392.796 331.193 C 392.82 330.943 392.882 330.701 392.984 330.47 C 394.144 323.377 394.527 316.173 394.132 308.993 C 394.191 307.56 395.374 306.427 396.808 306.427 C 398.245 306.427 399.425 307.56 399.484 308.993 C 399.355 315.079 398.89 321.149 398.093 327.181 C 402.769 325.431 408.472 324.424 409.675 320.096 C 411.706 312.717 414.781 305.838 416.308 298.268 C 416.976 294.873 422.14 296.314 421.472 299.686 C 420.562 304.205 418.929 308.299 417.753 312.686 C 417.402 313.947 417.085 315.416 416.71 316.912 C 418.339 315.791 419.917 314.533 421.55 313.596 L 421.546 313.592 C 422.82 312.908 424.406 313.354 425.136 314.604 C 425.863 315.85 425.472 317.451 424.253 318.221 C 421.062 320.463 417.738 322.51 414.3 324.346 C 414.3 324.373 414.3 324.373 414.273 324.397 L 414.273 324.4 C 414.019 324.893 413.706 325.354 413.335 325.764 C 415.773 325.971 418.218 326.033 420.663 325.951 C 423.339 325.951 423.339 331.299 420.663 331.299 C 417.706 331.283 414.749 331.088 411.812 330.713 C 410.109 330.709 408.437 330.248 406.972 329.373 C 404.148 330.033 401.421 331.057 398.859 332.412 L 398.86 332.41 Z M 272.13 344.445 C 271.825 345.093 271.685 345.812 271.728 346.531 C 271.517 347.328 271.372 348.144 271.29 348.965 C 271.349 349.504 273.591 350.383 274.021 350.414 L 274.021 350.41 C 275.071 350.511 275.978 351.183 276.38 352.156 C 276.786 353.132 276.618 354.25 275.946 355.062 C 275.986 355.144 276.013 355.238 276.025 355.328 C 276.083 356.828 278.353 358.941 279.4 360.007 L 279.396 360.011 C 280.86 361.105 282.802 361.332 284.478 360.601 C 287.11 359.668 289.36 357.89 290.872 355.543 C 291.431 354.441 292.747 353.953 293.892 354.421 C 294.981 354.273 296.056 354.793 296.622 355.734 C 296.7 355.761 296.755 355.761 296.837 355.793 C 296.837 354.429 299.083 352.23 299.993 351.418 C 300.181 351.23 300.396 351.074 300.583 350.882 C 300.474 350.722 300.337 350.586 300.232 350.402 C 299.107 347.859 297.689 345.398 296.462 342.914 L 296.458 342.914 C 295.669 340.597 294.204 338.57 292.255 337.089 C 289.193 335.433 291.911 330.804 294.931 332.461 C 297.501 334.125 299.489 336.546 300.618 339.39 C 301.9 341.933 303.107 344.683 304.556 347.121 C 305.329 346.367 305.868 345.406 306.638 344.632 L 306.642 344.632 C 307.189 344.207 307.63 343.656 307.927 343.027 C 308.786 340.738 308.54 338.183 307.255 336.101 C 306.493 334.683 305.841 333.207 305.306 331.687 C 303.673 327.488 295.197 325.484 291.099 325.671 C 290.083 326.421 288.536 328 287.599 328.664 C 285.243 330.375 282.384 330.914 280.083 332.519 C 278.142 333.875 276.282 335.347 274.521 336.929 C 273.611 337.761 272.064 337.707 271.794 339.312 C 272.255 339.144 272.775 339.269 273.107 339.632 C 275.587 340.859 274.318 344.015 272.13 344.445 L 272.13 344.445 Z M 604.97 69.995 C 610.798 70.21 613.552 78.073 612.138 83.05 C 610.54 87.046 608.329 90.765 605.576 94.07 C 603.009 97.57 601.908 101.691 599.048 105.086 C 599.021 105.113 598.966 105.137 598.939 105.168 L 598.939 105.172 C 599.134 105.352 599.314 105.547 599.478 105.758 C 602.04 109.734 602.072 114.832 599.556 118.84 C 598.677 120.723 598.04 122.707 597.658 124.75 C 597.244 126.703 596.626 128.609 595.81 130.438 C 593.927 135.301 591.048 139.723 587.357 143.411 C 583.189 146.473 579.736 150.309 575.642 153.473 C 567.177 160.023 559.392 167.407 552.4 175.512 C 552.185 175.973 551.841 176.363 551.412 176.637 C 549.349 179.094 547.318 181.586 545.419 184.152 C 537.798 194.289 527.954 202.125 520.091 211.675 C 514.755 218.331 508.587 224.284 501.743 229.382 C 503.103 234.886 503.138 240.632 501.849 246.152 C 502.071 246.555 502.193 247.004 502.196 247.465 C 502.247 259.153 504.946 271.504 503.614 283.117 C 502.427 290.269 500.806 297.344 498.755 304.301 C 495.489 318.586 495.896 333.508 485.81 345.168 C 485.708 345.273 485.591 345.363 485.462 345.437 C 483.634 350.691 480.224 355.25 475.701 358.488 C 475.435 358.656 475.134 358.766 474.826 358.809 C 473.841 360.629 472.705 362.363 471.427 363.996 C 469.74 365.863 467.943 367.633 466.052 369.293 C 462.541 373.43 457.482 375.945 452.06 376.246 C 451.572 376.269 451.092 376.148 450.67 375.902 C 449.353 376.965 447.959 377.93 446.498 378.789 C 433.31 386.469 414.619 388.391 403.357 376.601 L 403.353 376.601 C 403.044 376.266 402.826 375.863 402.712 375.422 C 392.65 370.742 387.685 359.934 377.841 354.504 C 377.681 354.426 377.599 354.289 377.466 354.211 L 377.462 354.215 C 374.623 356.098 371.529 357.57 368.275 358.59 C 367.955 358.676 367.619 358.715 367.287 358.699 C 367.236 358.832 367.15 358.992 367.099 359.137 C 364.833 363.801 361.529 367.89 357.443 371.082 C 355.517 373.542 352.9 375.375 349.927 376.332 C 348.994 380.136 346.509 383.375 343.08 385.261 C 342.798 385.449 342.478 385.57 342.142 385.613 C 341.4 391.14 338.556 396.172 334.205 399.656 C 353.674 423.461 374.017 446.699 400.131 462.539 C 419.381 474.227 404.224 486.664 387.561 486.601 C 373.87 485.851 360.78 480.722 350.221 471.972 C 338.326 461.824 327.455 450.542 317.752 438.284 C 296.314 409.182 271.186 384.472 244.811 360.05 C 234.272 350.284 223.741 340.495 213.225 330.679 C 212.623 330.417 212.135 329.952 211.834 329.366 C 192.783 311.604 173.869 293.69 155.092 275.62 C 140.276 261.308 124.904 247.323 110.67 232.425 C 101.147 222.421 90.022 210.253 87.881 195.941 C 84.615 173.898 103.397 150.816 123.35 171.148 C 129.983 177.941 133.963 186.46 140.303 193.425 C 146.108 199.847 152.795 205.195 158.92 211.265 L 158.916 211.269 C 166.154 219.238 172.705 227.8 178.506 236.871 C 181.006 234.77 183.947 233.258 187.115 232.457 C 187.143 232.297 187.088 232.192 187.115 232.02 C 188.565 224.906 189.58 214.153 198.779 214.477 C 203.842 214.672 208.408 217.57 210.732 222.07 C 213.912 221.965 217.053 222.781 219.775 224.426 C 220.236 223.758 220.994 223.356 221.807 223.352 C 236.975 222.914 252.166 222.914 267.358 222.551 C 277.858 222.309 288.112 219.395 298.518 222.113 C 299.108 222.266 299.619 222.625 299.959 223.129 C 301.592 223.906 303.022 225.164 304.721 226.02 L 304.721 226.024 C 308.065 227.356 311.619 228.082 315.221 228.16 C 326.241 229.871 337.096 231.316 347.987 233.481 C 348.342 233.559 348.682 233.707 348.979 233.918 C 349.323 232.957 349.67 232.02 350.022 231.004 C 353.338 221.641 356.174 215.621 364.678 210.25 L 364.674 210.25 C 364.158 209.43 363.701 208.57 363.311 207.684 C 362.74 207.086 362.463 206.273 362.545 205.453 C 362.631 204.637 363.069 203.894 363.748 203.43 C 367.123 201.383 370.733 199.758 374.502 198.586 C 378.44 197.141 382.201 195.242 386.213 194.094 C 385.377 193.379 384.616 192.582 383.944 191.715 C 382.526 189.844 383.592 185.855 383.006 183.719 L 383.006 183.715 C 382.116 181.336 381.557 178.844 381.35 176.309 C 381.342 175.355 381.858 174.473 382.686 174.008 C 382.756 173.984 382.819 173.945 382.87 173.898 C 378.666 166.082 378.323 156.757 381.936 148.648 C 388.866 134.824 402.963 129.363 417.456 127.73 C 439.042 125.297 452.229 147.554 451.749 166.73 C 455.854 167.535 459.206 170.504 460.499 174.488 C 461.917 173.285 463.464 172.187 464.776 171.09 C 466.89 169.086 469.241 167.344 471.776 165.906 C 473.862 164.887 476.03 164.219 478.089 163.094 L 478.089 163.09 C 478.972 162.566 480.089 162.641 480.893 163.281 C 484.558 164.266 487.87 166.269 490.444 169.058 C 490.487 169.098 490.522 169.141 490.554 169.191 C 491.936 168.289 493.429 167.562 494.991 167.023 C 497.292 166.328 499.964 166.945 502.136 165.957 C 502.214 165.461 502.417 164.992 502.722 164.594 C 507.925 158.5 513.671 152.895 519.894 147.848 C 525.296 143.113 531.097 139.367 536.371 134.395 C 543.269 127.895 550.949 122.516 558.012 116.231 C 562.609 112.113 568.844 109.813 572.746 104.735 L 572.742 104.735 C 572.894 104.543 573.066 104.375 573.253 104.227 C 573.355 104.078 573.48 103.953 573.628 103.852 C 576.222 95.477 580.71 87.817 586.753 81.465 C 589.749 78.336 593.753 76.887 596.78 73.894 C 599.089 71.851 601.929 70.5 604.972 69.996 L 604.97 69.995 Z M 605.263 84.6 C 605.665 83.799 607.939 74.221 604.646 75.748 C 602.411 76.686 600.365 78.018 598.607 79.686 C 596.759 81.534 593.821 81.873 591.946 83.834 C 589.653 85.87 587.677 88.241 586.087 90.87 C 583.11 95.713 580.591 100.827 578.571 106.14 C 578.478 106.534 578.294 106.897 578.036 107.21 C 578.736 111.636 580.591 115.796 583.415 119.276 C 584.677 120.905 586.345 122.178 588.255 122.963 C 588.919 123.424 589.677 123.737 590.474 123.873 C 590.849 123.288 591.279 122.588 591.786 121.838 C 591.786 121.705 591.814 121.596 591.814 121.495 L 591.81 121.495 C 591.962 120.479 592.575 119.588 593.47 119.088 C 595.657 115.288 597.482 110.823 594.966 108.588 C 593.618 107.362 591.845 106.709 590.021 106.772 C 587.931 106.823 588.013 107.573 586.958 108.827 C 585.966 110.209 584.56 111.249 582.947 111.799 C 581.54 112.135 580.122 111.295 579.74 109.901 C 579.357 108.506 580.154 107.061 581.536 106.635 C 583.247 106.128 583.591 103.534 585.146 102.674 C 586.611 101.768 588.318 101.331 590.04 101.421 C 591.638 101.479 593.212 101.788 594.716 102.331 C 594.837 101.956 595.029 101.612 595.283 101.311 C 597.443 98.155 599.345 94.827 600.97 91.362 C 602.322 89.124 604.115 86.979 605.263 84.6 L 605.263 84.6 Z M 589.568 132.12 C 589.31 131.058 589.673 129.944 590.498 129.233 C 589.201 129.241 587.923 128.921 586.787 128.296 C 582.873 126.358 579.603 123.331 577.369 119.577 C 575.677 117.245 574.341 114.675 573.412 111.952 C 564.478 120.936 552.096 127.264 542.865 135.729 C 542.931 135.889 542.978 136.061 543.001 136.237 C 542.88 141.573 544.298 146.831 547.091 151.378 C 549.74 155.636 553.607 158.999 558.189 161.034 C 558.349 161.085 558.431 161.167 558.541 161.19 C 565.306 154.96 572.639 149.21 579.404 143.057 C 583.005 139.616 586.396 135.963 589.568 132.119 L 589.568 132.12 Z M 550.463 169.308 C 551.693 167.945 552.975 166.605 554.287 165.296 C 549.943 162.988 546.225 159.656 543.455 155.589 C 540.889 150.66 539.147 145.347 538.291 139.859 C 536.736 141.219 535.189 142.559 533.611 143.871 C 533.611 143.922 533.639 143.949 533.639 144.004 C 533.881 153.418 539.471 167.035 548.951 171.07 C 549.443 170.46 549.943 169.867 550.462 169.281 L 550.463 169.308 Z M 539.631 182.624 C 541.529 180.167 543.455 177.702 545.432 175.269 C 536.049 170.347 530.08 158.312 528.635 147.933 C 527.404 148.921 526.17 149.94 524.943 150.956 L 524.943 150.96 C 524.76 158.054 526.729 165.038 530.588 170.991 C 532.615 175.538 535.717 179.522 539.631 182.6 L 539.631 182.624 Z M 524.463 200.706 C 528.666 196.319 532.619 191.702 536.311 186.878 C 531.901 183.339 528.366 178.823 525.991 173.69 C 522.397 168.186 520.237 161.87 519.706 155.315 C 514.956 159.315 510.553 163.706 506.546 168.44 C 506.468 168.545 506.331 168.6 506.253 168.682 C 506.237 169.549 505.694 170.323 504.886 170.631 C 503.073 171.467 501.1 171.897 499.108 171.893 C 496.85 172.147 494.698 172.975 492.85 174.299 C 490.663 175.381 488.89 177.147 487.792 179.327 C 487.284 180.237 485.386 182.162 485.167 183.073 C 485.058 183.581 484.784 184.041 484.393 184.385 C 484.694 187.573 484.765 190.78 484.608 193.983 C 484.268 199.35 484.401 204.741 485.011 210.088 C 488.417 205.432 490.554 199.975 491.218 194.244 C 491.569 188.892 493.573 183.92 493.733 178.494 C 493.839 175.041 499.19 175.041 499.081 178.494 C 498.804 185.623 497.706 192.693 495.815 199.572 C 493.675 205.791 490.679 211.681 486.913 217.072 C 486.702 217.412 486.429 217.709 486.108 217.947 C 486.19 218.459 486.245 218.966 486.351 219.502 C 486.433 219.939 486.538 220.439 486.616 220.92 C 488.917 219.021 491.753 217.525 493.839 215.783 C 496.354 214.068 498.554 211.931 500.339 209.47 C 501.351 207.81 502.46 206.213 503.655 204.681 C 505.796 201.982 509.565 205.806 507.452 208.478 C 505.819 210.513 504.644 212.892 502.933 214.869 L 502.937 214.873 C 501.284 216.587 499.503 218.173 497.612 219.619 C 494.804 222.025 489.562 224.138 488.038 227.588 C 488.007 227.646 487.956 227.67 487.929 227.724 C 489.105 233.584 490.444 239.415 492.077 245.162 C 495.499 257.088 496.89 238.076 496.624 231.76 L 496.62 231.76 C 495.616 231.424 494.89 230.546 494.749 229.495 C 494.605 228.444 495.073 227.405 495.952 226.811 C 506.409 220.284 515.905 209.452 524.464 200.682 L 524.463 200.706 Z M 495.151 299.296 C 498.717 290.675 499.96 281.269 498.756 272.015 C 494.796 274.472 493.542 283.785 492.764 288.011 C 491.827 293.261 489.182 301.757 484.37 304.941 L 484.366 304.941 C 484.21 305.652 483.737 306.254 483.081 306.57 C 478.194 308.515 472.909 309.254 467.679 308.714 C 461.237 308.363 454.781 308.742 448.429 309.839 C 449.019 310.961 449.604 312.086 450.179 313.207 C 454.3 313.011 458.429 313.48 462.402 314.597 C 467.374 315.64 472.027 318.046 476.871 319.515 C 478.246 319.953 479.031 321.402 478.64 322.793 C 478.253 324.187 476.832 325.019 475.425 324.679 C 471.199 323.367 466.972 321.019 462.667 320.109 L 462.667 320.105 C 459.503 319.261 456.273 318.691 453.011 318.394 C 454.351 320.722 455.71 323.05 457.183 325.371 L 457.187 325.375 C 460.855 326.199 464.39 327.543 467.687 329.359 C 471.769 330.695 475.628 332.636 479.132 335.121 C 481.644 337.5 477.87 341.273 475.362 338.89 L 475.359 338.89 C 472.558 337.05 469.515 335.609 466.316 334.613 C 464.077 333.414 461.773 332.332 459.417 331.375 C 459.503 331.933 459.546 332.496 459.554 333.058 C 462.378 337.449 465.796 341.425 469.714 344.87 C 471.878 346.976 473.772 349.339 475.358 351.905 C 477.741 349.343 479.554 346.308 480.679 342.995 C 480.89 342.323 481.366 341.765 481.991 341.448 C 482.019 341.421 482.019 341.39 482.042 341.366 C 492.741 328.995 488.304 312.807 495.151 299.272 L 495.151 299.296 Z M 498.143 266.484 C 498.202 266.457 498.225 266.484 498.28 266.457 C 497.878 261.988 497.37 257.574 497.104 253.406 C 496.702 253.749 496.303 254.128 495.85 254.472 L 495.846 254.476 C 494.358 255.593 492.393 255.855 490.663 255.16 C 488.936 254.464 487.698 252.917 487.393 251.081 C 486.432 237.331 478.803 223.397 478.803 209.569 C 478.803 202.722 479.241 195.897 479.241 189.081 L 479.245 189.081 C 478.967 182.554 478.26 176.046 477.131 169.608 C 474.456 170.726 471.944 172.198 469.663 173.987 C 468.108 175.3 462.065 178.987 461.874 180.78 L 461.874 180.784 C 461.803 181.304 461.592 181.792 461.264 182.202 C 461.217 182.339 461.143 182.464 461.049 182.573 C 456.374 188.89 452.569 195.807 449.733 203.135 C 448.577 208.28 446.847 213.276 444.573 218.037 C 440.698 224.506 429.436 226.01 423.096 229.697 C 418.174 232.584 406.19 230.502 401.803 226.838 C 393.538 219.908 396.913 205.518 388.241 199.049 L 388.241 199.045 C 388.14 199.111 388.034 199.166 387.921 199.205 C 383.827 200.326 379.948 202.268 375.964 203.776 C 373.503 204.611 371.101 205.604 368.769 206.748 C 370.054 208.936 372.3 210.572 373.69 212.686 C 375.077 215.096 376.069 217.717 376.632 220.444 C 378.011 226.311 379.855 232.061 382.14 237.639 C 382.526 238.42 382.507 239.338 382.089 240.099 C 388.093 247.123 390.679 256.447 389.151 265.56 C 391.214 263.076 393.405 260.721 395.569 258.26 C 397.522 256.014 399.769 254.033 401.722 251.791 C 403.034 250.295 403.433 248.982 405.253 248.021 C 408.315 246.443 411.007 251.045 407.929 252.65 C 406.694 253.291 405.491 255.615 404.476 256.662 C 402.726 258.412 401.05 260.221 399.339 262.033 L 399.339 262.029 C 396.765 264.681 394.331 267.467 392.042 270.369 C 393.46 270.584 394.851 270.849 396.054 271.092 C 403.397 265.994 411.175 261.556 419.3 257.826 C 422.429 256.486 425.159 261.091 421.972 262.451 C 415.554 265.314 409.39 268.712 403.542 272.615 C 406.975 273.228 410.288 274.384 413.358 276.04 C 413.721 276.072 414.081 276.181 414.401 276.357 C 421.436 280.025 427.717 281.146 433.901 286.466 L 433.901 286.47 C 435.534 287.895 436.999 289.501 438.276 291.255 C 448.198 290.052 458.522 283.231 467.003 278.067 C 473.757 274.032 480.304 269.653 486.608 264.942 C 489.366 262.856 492.01 267.508 489.311 269.567 C 480.784 275.903 471.827 281.637 462.51 286.739 C 455.979 290.919 448.854 294.083 441.377 296.129 C 442.74 298.563 443.975 301.079 445.256 303.645 C 445.471 304.083 445.693 304.52 445.924 304.958 L 445.928 304.958 C 451.342 303.743 456.885 303.219 462.432 303.403 C 467.405 303.352 474.76 304.313 479.573 302.278 C 479.76 301.637 480.221 301.11 480.831 300.836 C 484.499 298.989 487.088 290.512 487.624 286.609 C 487.967 283.957 487.358 282.234 489.069 280.109 C 491.256 277.383 490.487 273.047 492.569 270.16 L 492.569 270.156 C 493.803 268.168 495.835 266.809 498.143 266.43 L 498.143 266.484 Z M 486.108 172.273 C 485.636 171.8 485.108 171.39 484.534 171.046 C 483.905 170.714 483.315 170.312 482.784 169.843 C 482.714 169.742 482.624 169.66 482.518 169.601 C 482.784 171.765 483.108 173.937 483.393 176.078 C 483.55 175.836 483.714 175.64 483.874 175.41 L 483.874 175.406 C 484.554 174.316 485.3 173.273 486.108 172.273 L 486.108 172.273 Z M 464.366 363.623 L 464.366 363.627 C 467.257 361.256 469.503 358.193 470.893 354.717 C 468.468 351.275 465.71 348.084 462.655 345.186 C 461.905 344.275 461.05 343.369 460.19 342.436 C 461.476 352.498 461.476 362.065 456.315 369.85 L 456.315 369.846 C 459.19 368.037 461.886 365.955 464.366 363.627 L 464.366 363.623 Z M 456.452 179.903 C 456.503 179.821 456.558 179.766 456.608 179.688 C 456.308 179.29 456.124 178.817 456.073 178.321 C 455.026 165.856 450.163 175.165 448.265 177.883 C 445.722 181.551 443.37 185.458 440.987 189.258 C 437.589 194.688 429.967 196.258 424.967 200.274 C 419.565 203.903 413.065 205.524 406.592 204.853 C 403.827 204.657 401.17 203.704 398.913 202.095 C 400.92 206.243 408.1 214.665 411.487 214.665 C 415.455 215.102 419.463 214.344 422.999 212.493 C 426.534 210.637 429.436 207.774 431.334 204.262 C 435.913 197.903 442.295 193.067 449.654 190.379 C 451.608 186.961 453.744 183.938 456.451 179.902 L 456.452 179.903 Z M 446.233 169.872 L 446.229 169.868 C 446.374 168.727 446.448 167.575 446.444 166.423 C 445.721 167.677 444.999 168.989 444.194 170.192 C 442.8 172.368 441.042 174.29 439.007 175.88 C 439.553 177.177 439.94 178.532 440.159 179.919 C 442.401 176.708 444.428 173.349 446.229 169.868 L 446.233 169.872 Z M 445.819 158.263 C 445.514 155.865 445.022 153.497 444.35 151.177 C 444.299 151.017 444.213 150.857 444.163 150.697 L 444.163 150.693 C 443.585 151.9 442.932 153.072 442.21 154.193 C 441.081 155.88 440.057 157.63 439.147 159.443 C 438.007 161.759 436.596 163.931 434.948 165.915 C 435.612 167.341 436.198 168.798 436.698 170.29 C 436.749 170.451 436.803 170.611 436.854 170.798 C 440.612 167.275 442.085 161.872 445.819 158.263 L 445.819 158.263 Z M 435.292 218.122 C 441.55 216.036 443.714 204.188 445.937 198.329 C 439.968 202.794 434.82 208.263 430.718 214.485 C 427.109 219.458 423.312 219.915 417.507 219.915 C 407.956 219.915 408.925 218.79 401.675 213.602 L 401.671 213.602 C 401.261 213.305 400.866 212.981 400.495 212.637 C 404.87 225.875 416.944 226.598 427.483 220.876 C 430.011 219.751 432.62 218.829 435.292 218.122 L 435.292 218.122 Z M 440.827 145.77 C 440.901 145.676 440.983 145.586 441.069 145.504 C 435.991 139.059 426.6 132.051 419.995 132.816 C 410.472 133.883 398.007 136.023 391.323 144.128 C 386.694 149.773 381.374 165.069 388.163 171.944 C 392.968 170.847 397.702 169.452 402.339 167.772 C 408.62 165.101 415.257 164.507 421.515 161.542 C 426.171 159.354 429.39 159.507 431.812 161.542 L 431.816 161.542 C 433.277 159.265 434.593 156.897 435.754 154.456 C 437.406 151.601 438.929 148.444 440.828 145.769 L 440.827 145.77 Z M 432.483 183.696 L 432.483 183.7 C 433.757 182.055 434.116 179.884 433.448 177.919 C 432.085 173.372 430.64 163.13 424.222 166.149 C 419.046 168.082 413.769 169.735 408.413 171.098 C 404.475 172.461 400.866 174.711 396.827 175.778 C 389.448 177.703 387.334 176.262 388.538 184.418 C 389.206 189.074 390.065 190.946 394.127 192.067 C 394.315 192.098 394.53 192.149 394.741 192.203 C 393.698 190.25 392.991 187.828 391.991 185.278 C 389.448 178.938 406.03 175.914 408.788 174.739 C 413.6 172.703 422.456 167.328 427.35 171.02 L 427.346 171.02 C 430.744 174.352 432.604 178.942 432.482 183.7 L 432.483 183.696 Z M 426.601 187.868 C 428.019 183.798 426.815 174.895 421.569 175.774 L 421.569 175.778 C 417.089 176.907 412.749 178.52 408.624 180.59 C 406.191 181.579 397.686 182.969 397.686 185.668 L 397.686 185.672 C 397.655 188.274 399.413 190.555 401.936 191.184 C 403.061 190.082 404.405 189.227 405.874 188.668 C 412.05 186.985 414.698 193.239 422.186 189.821 C 423.506 189.231 425.073 188.594 426.6 187.872 L 426.601 187.868 Z M 419.698 196.907 C 420.366 196.641 420.96 196.29 421.597 195.997 L 421.597 196.001 C 419.679 196.872 417.538 197.126 415.472 196.723 C 411.355 194.915 406.593 195.423 402.952 198.063 C 408.409 200.294 414.597 199.868 419.694 196.911 L 419.698 196.907 Z M 402.229 477.837 C 409.827 472.298 390.381 462.829 387.573 460.661 C 384.577 458.337 381.691 455.958 378.855 453.548 C 377.444 457.017 376.327 460.595 375.515 464.251 C 374.819 468.985 373.73 473.657 372.249 478.212 C 374.929 479.247 377.694 480.052 380.515 480.618 C 386.398 481.766 396.992 481.688 402.23 477.837 L 402.229 477.837 Z M 397.284 333.437 L 397.343 333.378 C 397.311 333.378 397.311 333.378 397.284 333.41 L 397.284 333.437 Z M 384.179 261.218 C 384.499 249.073 375.324 238.187 364.464 232.597 C 361.402 231.023 364.089 226.394 367.136 227.972 L 367.14 227.972 C 369.761 229.328 372.249 230.921 374.577 232.73 C 373.402 229.148 372.39 225.453 371.476 221.843 L 371.476 221.847 C 370.71 219.237 369.448 216.804 367.757 214.675 C 359.366 220.847 353.745 230.073 352.109 240.359 C 351.355 245.207 350.164 249.976 348.55 254.613 C 347.507 257.128 346.195 259.398 345.421 261.941 C 346.527 261.976 347.625 262.156 348.687 262.472 C 351.773 263.234 354.898 263.832 358.05 264.265 C 361.445 264.851 360.003 269.988 356.632 269.402 C 351.734 268 346.628 267.472 341.546 267.851 C 338.093 268.624 335.234 271.039 333.894 274.316 C 337.628 274.531 341.32 275.203 344.89 276.32 C 346.281 276.738 347.085 278.191 346.703 279.593 C 346.316 280.995 344.882 281.835 343.472 281.484 C 340.378 280.175 336.972 279.8 333.667 280.402 C 330.367 281.007 327.312 282.562 324.882 284.878 C 319.82 288.632 315.812 293.421 311.07 297.503 C 307.633 301.347 304.426 305.39 301.472 309.616 C 298.281 312.706 295.695 316.362 293.847 320.397 C 296.164 320.632 298.426 321.257 300.535 322.245 C 303.246 322.897 305.765 324.183 307.89 325.987 C 309.523 328.311 310.828 330.851 311.765 333.53 C 312.031 334.198 312.355 335.026 312.676 335.858 C 316.48 329.987 320.793 324.467 325.571 319.354 C 328.004 317.425 330.598 315.706 333.324 314.222 C 336.321 312.108 338.727 308.229 341.934 306.464 C 347.926 303.12 354.321 293.089 361.329 292.503 L 361.333 292.503 C 364.762 292.136 368.169 291.534 371.521 290.71 C 372.31 287.94 373.599 285.339 375.318 283.03 C 375.2 282.866 375.099 282.686 375.025 282.495 C 374.736 281.26 374.341 280.053 373.849 278.885 C 373.099 277.428 371.818 276.315 370.267 275.784 C 367.865 274.889 365.689 273.475 363.9 271.639 C 361.65 269.046 365.423 265.249 367.697 267.87 C 369.97 270.491 373.685 270.932 376.306 273.221 L 376.306 273.218 C 377.447 274.253 378.318 275.546 378.849 276.987 C 379.54 275.643 380.376 274.382 381.337 273.218 C 381.24 273.046 381.185 272.85 381.177 272.651 C 381.454 269.475 380.814 266.288 379.329 263.464 C 377.673 260.975 375.622 258.772 373.259 256.94 C 370.634 254.718 374.435 250.948 377.056 253.171 C 379.837 255.464 382.24 258.179 384.181 261.218 L 384.179 261.218 Z M 374.257 450.448 C 374.339 450.225 374.456 450.022 374.605 449.835 C 371.476 447.054 368.429 444.218 365.456 441.3 C 363.667 445.608 362.167 450.05 360.163 454.277 C 358.425 458.878 356.929 463.562 355.667 468.316 C 359.284 471.265 363.191 473.839 367.327 475.995 C 368.655 471.687 369.663 467.288 370.351 462.835 C 371.401 458.632 372.706 454.495 374.257 450.448 L 374.257 450.448 Z M 356.441 449.405 C 358.019 445.233 359.597 441.299 361.39 437.26 C 357.863 433.678 354.402 429.971 351.011 426.135 L 351.015 426.135 C 350.753 426.854 350.183 427.416 349.461 427.662 C 341.148 431.006 332.742 433.971 324.426 437.209 C 328.652 442.182 333.039 447.08 337.801 451.678 C 342.242 456.014 346.625 460.456 351.227 464.545 C 351.637 462.151 352.223 459.791 352.977 457.483 C 354.039 454.752 355.43 452.162 356.445 449.409 L 356.441 449.405 Z M 347.879 422.577 L 347.828 422.526 C 345.261 419.53 342.672 416.585 340.047 413.643 L 340.047 413.647 C 339.851 413.768 339.644 413.874 339.433 413.964 C 337.183 414.632 334.883 414.874 332.613 415.518 C 329.855 416.319 327.426 417.952 324.668 418.698 C 320.578 419.823 316.402 421.401 312.203 422.233 C 315.062 425.784 317.929 429.347 320.843 432.878 C 329.804 429.347 338.894 426.191 347.882 422.581 L 347.879 422.577 Z M 347.402 238.667 L 347.406 238.667 C 347.136 238.706 346.867 238.706 346.601 238.667 C 336.707 236.69 326.945 235.378 316.937 233.827 L 316.937 233.831 C 313.433 233.886 309.933 233.542 306.507 232.812 C 303.691 230.894 300.706 229.23 297.601 227.835 C 296.972 227.78 296.386 227.507 295.941 227.062 C 285.941 224.843 273.875 227.405 263.711 227.835 C 251.246 228.343 238.773 228.343 226.293 228.64 C 227.902 229.964 229.16 231.663 229.957 233.589 C 231.238 236.796 226.051 238.187 224.82 235.007 C 223.457 232.835 221.461 231.132 219.098 230.128 C 217.785 229.405 216.473 228.737 215.113 228.12 C 214.762 228.003 214.406 227.917 214.043 227.855 C 214.48 228.687 214.953 229.487 215.433 230.265 C 216.156 231.538 215.719 233.159 214.453 233.898 C 213.187 234.636 211.562 234.218 210.808 232.964 C 207.785 227.964 206.367 220.902 199.496 219.941 C 195.559 219.378 195.219 221.812 194.246 225.191 C 193.661 227.199 193.18 229.253 192.75 231.316 C 193.883 231.171 195.032 231.117 196.176 231.152 C 203.422 231.98 210.071 235.574 214.735 241.183 C 218.856 246.437 221.325 252.796 221.821 259.453 C 221.391 265.07 219.094 270.379 215.298 274.539 C 216.286 275.527 217.302 276.492 218.294 277.48 C 221.45 277.187 223.427 274.914 226.501 274.621 L 226.501 274.617 C 228.716 274.801 230.942 274.711 233.134 274.351 C 235.247 273.519 234.712 269.562 234.739 267.933 C 234.946 260.359 235.798 252.816 237.282 245.382 C 237.872 241.984 243.036 243.425 242.446 246.8 C 241.614 251.613 240.923 256.269 240.52 261.003 C 254.293 260.71 268.52 261.031 281.547 261.031 C 286.899 261.031 286.899 266.382 281.547 266.382 C 268.359 266.382 254.106 266.039 240.168 266.355 C 240.141 266.89 240.09 267.398 240.09 267.933 C 240.039 269.292 240.118 270.898 240.012 272.453 C 243.489 271.757 247.032 271.437 250.578 271.488 C 258.332 272.261 266.008 273.386 273.816 273.464 C 284.863 273.57 293.128 276.324 302.691 269.64 C 305.527 267.632 308.199 272.289 305.39 274.238 L 305.39 274.242 C 303.336 275.765 301.121 277.058 298.785 278.097 C 301.808 279.062 304.98 279.476 308.148 279.324 C 309.191 279.461 310.156 279.953 310.879 280.718 C 311.32 281.214 311.672 281.785 311.918 282.402 C 312.773 283.289 313.84 283.941 315.019 284.3 C 315.394 284.453 315.73 284.679 316.008 284.968 C 319.129 281.507 322.668 278.453 326.551 275.875 C 327.035 275.621 327.535 275.402 328.051 275.207 C 328.48 272.394 329.691 269.757 331.547 267.601 C 333.406 265.445 335.832 263.855 338.551 263.011 C 338.988 262.929 339.426 262.824 339.805 262.714 C 339.765 262.503 339.765 262.285 339.805 262.074 C 340.824 256.777 344.484 252.496 345.316 247.148 C 345.797 244.273 346.492 241.437 347.406 238.667 L 347.402 238.667 Z M 336.597 318.772 C 337.292 317.569 338.015 316.417 338.738 315.241 L 338.738 315.245 C 334.066 319.296 329.683 323.667 325.613 328.323 C 326.788 328.694 327.992 329.018 329.222 329.338 C 329.429 328.913 329.742 328.541 330.132 328.268 C 332.898 325.565 335.097 322.338 336.597 318.772 L 336.597 318.772 Z M 334.347 391.397 L 334.351 391.397 C 336.378 388.764 337.171 385.381 336.515 382.12 C 335.124 375.46 334.46 371.448 328.035 367.784 C 323.355 364.999 317.867 363.889 312.469 364.627 C 313.887 365.272 315.304 366.096 316.844 366.983 C 320.597 368.772 323.988 371.237 326.848 374.256 C 330.949 379.124 333.555 385.072 334.351 391.389 L 334.347 391.397 Z M 336.058 409.264 C 334.027 407.045 332.019 404.772 329.933 402.58 C 326.82 398.858 323.988 394.909 321.456 390.768 C 321.113 390.948 320.722 391.022 320.335 390.983 C 317.159 390.557 313.96 390.335 310.757 390.315 C 310.097 390.347 309.449 390.108 308.968 389.655 C 308.484 389.202 308.202 388.569 308.191 387.909 C 308.011 387.546 307.894 387.159 307.847 386.757 C 307.495 382.452 306.562 378.116 305.949 373.862 L 305.945 373.862 C 305.941 373.729 305.949 373.596 305.972 373.467 C 303.859 371.084 301.773 368.678 299.659 366.272 C 298.347 371.834 295.675 380.956 290.433 379.776 C 281.98 377.877 273.742 373.624 265.183 371.647 C 278.371 384.042 290.91 397.104 302.757 410.784 C 304.655 412.971 306.476 415.194 308.296 417.417 C 308.312 417.417 308.323 417.405 308.323 417.389 C 314.987 416.694 321.456 414.729 327.389 411.612 C 330.167 410.46 333.081 409.667 336.057 409.257 L 336.058 409.264 Z M 329.242 393.565 L 329.242 393.569 C 328.988 386.096 325.363 379.139 319.382 374.651 C 316.179 372.389 312.734 370.495 309.109 369.003 C 315.883 377.003 322.527 385.265 329.242 393.562 L 329.242 393.565 Z M 317.097 385.327 C 316.936 385.167 316.804 385.002 316.659 384.889 C 315.163 383.444 313.772 381.975 312.382 380.514 C 312.624 382.042 312.819 383.577 312.995 385.092 C 314.366 385.108 315.733 385.186 317.097 385.323 L 317.097 385.327 Z M 310.413 290.585 C 310.999 290.046 311.589 289.487 312.163 288.901 C 310.44 288.413 308.921 287.378 307.831 285.956 L 307.026 284.675 L 306.706 284.675 C 305.593 284.698 304.475 284.651 303.366 284.538 C 299.097 284.366 295.085 282.471 292.233 279.288 C 289.561 279.261 286.483 278.85 281.733 278.85 C 267.049 278.85 252.26 278.413 237.733 277.975 C 235.003 280.331 231.475 279.475 228.241 279.796 C 226.053 280.011 225.178 281.589 223.241 282.284 L 223.241 282.288 C 223.194 282.284 223.147 282.292 223.104 282.311 C 226.288 285.546 229.417 288.835 232.468 292.261 C 244.765 306.406 258.288 319.437 272.882 331.199 C 274.757 329.441 276.905 327.995 279.245 326.921 C 281.612 325.894 283.862 324.62 285.96 323.124 C 286.772 322.476 287.549 321.788 288.288 321.062 C 289.444 316.074 292.003 311.519 295.671 307.937 C 301.006 302.245 304.608 295.906 310.413 290.585 L 310.413 290.585 Z M 295.382 361.46 C 295.112 361.163 294.847 360.87 294.577 360.585 C 294.374 360.526 294.175 360.444 293.991 360.346 C 290.796 364.331 285.878 366.53 280.776 366.257 C 275.374 365.21 271.272 360.784 270.639 355.319 C 270.628 355.182 270.647 355.049 270.694 354.92 C 268.526 354.123 266.823 352.408 266.038 350.237 C 265.823 348.561 265.971 346.854 266.475 345.237 C 266.624 344.178 266.928 343.143 267.385 342.174 C 266.569 341.287 266.221 340.069 266.448 338.885 C 266.62 337.24 267.452 335.737 268.749 334.713 C 264.87 331.651 261.124 328.51 257.46 325.221 C 253.046 334.475 253.714 347.069 247.565 355.366 C 251.257 358.71 254.944 362.077 258.585 365.475 L 258.585 365.471 C 258.87 365.377 259.167 365.342 259.46 365.362 C 268.023 366.592 276.413 368.795 284.476 371.924 C 288.086 373.127 290.277 375.963 291.882 371.549 C 293.164 368.346 294.281 365.08 295.222 361.764 C 295.273 361.647 295.355 361.569 295.382 361.463 L 295.382 361.46 Z M 253.417 321.565 C 252.265 320.498 251.116 319.377 249.991 318.299 C 247.319 323.549 244.159 328.678 241.487 333.975 L 241.483 333.975 C 240.202 337.956 238.499 341.784 236.401 345.397 L 243.573 351.753 C 246.89 346.967 247.612 339.065 249.163 333.815 C 250.104 329.717 251.448 325.721 253.175 321.889 C 253.237 321.768 253.319 321.658 253.417 321.564 L 253.417 321.565 Z M 245.979 314.397 C 243.866 312.283 241.753 310.143 239.667 307.975 C 237.917 311.772 235.815 315.49 233.839 319.131 C 231.003 324.318 229.159 330.096 225.921 335.069 L 225.917 335.069 C 225.772 335.268 225.612 335.459 225.436 335.635 C 227.186 337.241 228.968 338.842 230.788 340.42 C 231.323 340.901 231.882 341.409 232.444 341.889 L 232.444 341.893 C 233.456 339.674 234.319 337.397 235.038 335.069 C 236.214 332.503 237.503 329.991 238.917 327.553 C 241.382 323.315 243.866 318.772 245.979 314.389 L 245.979 314.397 Z M 235.682 303.749 C 234.319 302.28 232.956 300.784 231.62 299.311 C 229.667 303.749 226.964 308.061 224.905 312.471 L 224.897 312.475 C 222.85 317.963 220.3 323.252 217.276 328.276 C 218.667 329.538 220.057 330.819 221.448 332.077 C 224.206 327.741 225.753 322.768 228.218 318.272 L 228.222 318.276 C 230.987 313.581 233.475 308.725 235.679 303.741 L 235.682 303.749 Z M 227.628 294.878 C 225.491 292.522 223.323 290.213 221.132 287.952 C 218.827 291.76 215.62 294.948 211.796 297.233 C 206.612 300.893 201.956 305.253 197.968 310.19 C 203.077 315.053 208.206 319.866 213.351 324.628 C 216.101 319.886 218.425 314.905 220.3 309.753 C 222.55 304.917 225.894 299.944 227.628 294.878 L 227.628 294.878 Z M 213.909 266.878 C 215.444 263.546 216.049 259.862 215.667 256.214 C 215.28 252.565 213.917 249.089 211.721 246.148 C 209.018 242.323 201.448 235.984 196.182 236.523 C 194.006 236.73 191.846 237.054 189.706 237.487 C 197.358 239.652 203.268 246.155 208.218 252.467 C 211.347 256.686 213.307 261.659 213.909 266.877 L 213.909 266.878 Z M 203.444 296.413 C 207.311 293.963 211.038 291.292 214.6 288.417 C 205.338 287.983 196.061 288.077 186.811 288.686 C 178.6 288.686 178.936 285.1 175.604 277.557 C 173.092 271.913 171.033 266.061 168.569 260.385 C 166.428 255.467 168.756 247.307 165.764 257.76 L 165.76 257.76 C 164.776 263.19 162.826 268.397 160.01 273.143 C 171.322 284.268 182.662 295.455 194.112 306.495 C 196.983 302.921 200.104 299.554 203.444 296.413 L 203.444 296.413 Z M 186.819 283.335 C 196.725 282.682 206.663 282.682 216.569 283.335 C 207.959 274.772 199.026 266.671 190.065 258.218 C 178.456 247.202 171.581 232.843 161.045 221.202 C 155.877 225.788 150.248 229.819 144.244 233.237 C 140.455 234.963 136.877 237.116 133.576 239.655 C 132.252 241.014 130.81 242.248 129.271 243.35 C 134.326 248.221 139.459 253.034 144.462 257.901 C 148.372 261.694 152.275 265.506 156.177 269.346 C 159.837 264.182 160.99 255.412 162.677 249.557 C 162.923 248.655 163.622 247.944 164.517 247.678 C 164.732 247.627 164.954 247.6 165.134 247.545 L 165.134 247.549 C 166.072 247.276 167.083 247.541 167.759 248.244 C 171.322 253.073 174.154 258.396 176.161 264.049 C 178.228 268.569 180.364 283.334 186.817 283.334 L 186.819 283.335 Z M 208.913 268.46 C 208.596 264.471 207.299 260.624 205.143 257.253 C 200.272 250.514 192.842 241.901 183.932 242.089 C 183.096 242.147 182.296 241.749 181.846 241.042 C 181.846 241.073 181.819 241.073 181.819 241.1 C 181.768 241.116 181.721 241.143 181.682 241.178 C 184.44 244.854 187.483 248.303 190.78 251.502 C 196.846 257.252 202.913 262.822 208.909 268.467 L 208.913 268.46 Z M 157.393 217.3 C 151.826 211.788 146.612 206.495 141.584 201.038 C 138.131 206.288 137.209 214.331 135.486 220.214 C 134.123 224.948 132.728 229.706 131.502 234.468 L 131.529 234.44 C 134.767 232.354 138.404 230.831 141.56 228.639 C 147.079 225.214 152.369 221.425 157.392 217.299 L 157.393 217.3 Z M 131.143 216.038 L 131.143 216.042 C 132.213 211.182 133.553 206.386 135.154 201.679 C 121.451 201.55 107.775 200.452 94.228 198.386 C 96.502 205.87 100.33 212.792 105.466 218.691 C 111.564 225.859 118.154 232.593 124.935 239.179 C 124.924 239.034 124.924 238.89 124.935 238.741 C 126.658 231.073 128.908 223.565 131.154 216.042 L 131.143 216.038 Z M 137.401 196.382 C 133.74 192.21 130.182 187.878 126.678 183.222 C 125.26 181.351 123.615 179.238 121.834 177.234 C 121.236 177.804 120.564 178.281 119.83 178.648 C 116.541 180.495 113.705 182.984 110.494 184.933 C 106.119 187.527 102.119 190.62 97.978 193.546 L 97.974 193.55 C 111.036 195.41 124.216 196.359 137.412 196.382 L 137.401 196.382 Z M 117.823 173.859 C 117.873 173.671 117.983 173.566 118.037 173.421 L 118.033 173.425 C 116.76 172.273 115.35 171.277 113.834 170.457 C 101.584 163.98 92.143 177.332 92.396 187.254 C 92.447 188.379 92.556 189.504 92.662 190.621 C 97.264 187.558 101.545 184.058 106.275 181.23 C 109.033 179.574 111.525 177.73 114.15 175.91 C 114.947 175.39 118.13 172.816 117.834 173.863 L 117.823 173.859 Z"/>
    <path d="M 510.36 192.79 C 511.993 189.728 516.622 192.446 514.989 195.493 C 514.696 196.028 514.372 196.509 514.114 197.048 C 512.458 200.11 507.856 197.392 509.489 194.345 C 509.774 193.81 510.094 193.329 510.36 192.79 L 510.36 192.79 Z"/>
    <path d="M 469.39 214.97 C 470.796 214.618 472.234 215.45 472.624 216.849 C 473.015 218.247 472.222 219.704 470.835 220.134 C 468.613 220.548 466.347 220.654 464.093 220.454 C 461.636 220.427 459.199 220.267 456.738 220.24 L 456.742 220.24 C 455.304 220.181 454.171 219.001 454.171 217.564 C 454.171 216.126 455.304 214.947 456.742 214.888 C 459.199 214.915 461.636 215.103 464.097 215.103 L 464.093 215.103 C 465.859 215.286 467.636 215.243 469.39 214.97 L 469.39 214.97 Z"/>
    <path d="M 471.19 205.69 C 471.436 206.335 471.405 207.049 471.104 207.671 C 470.807 208.296 470.268 208.764 469.612 208.979 C 467.565 209.299 465.502 209.491 463.432 209.542 C 458.081 209.542 458.081 204.19 463.432 204.19 L 463.432 204.194 C 465.073 204.198 466.709 204.081 468.331 203.842 C 468.956 203.67 469.627 203.772 470.17 204.128 C 470.717 204.479 471.088 205.045 471.19 205.69 L 471.19 205.69 Z"/>
    <path d="M 465.11 269.16 C 467.516 266.695 471.317 270.473 468.88 272.93 L 468.883 272.93 C 465.036 276.285 460.77 279.125 456.195 281.383 C 452.324 283.789 448.274 285.887 444.078 287.664 C 440.868 288.949 439.477 283.789 442.633 282.5 L 442.637 282.504 C 446.891 280.566 451.02 278.367 455.004 275.922 C 458.672 274.152 462.074 271.875 465.109 269.16 L 465.11 269.16 Z"/>
    <path d="M 468.66 258.67 C 469.664 259.729 469.664 261.385 468.66 262.44 C 466.945 264.475 464.957 266.264 462.75 267.748 C 461.484 268.49 459.859 268.072 459.113 266.811 C 458.379 265.533 458.805 263.9 460.074 263.147 C 461.859 261.861 463.469 260.354 464.863 258.654 C 465.918 257.615 467.613 257.623 468.66 258.67 L 468.66 258.67 Z"/>
    <path d="M 447.78 247.73 C 451.014 246.499 452.405 251.668 449.198 252.894 C 446.202 254.039 443.151 255.113 440.077 256.023 L 440.077 256.019 C 438.671 256.363 437.249 255.527 436.858 254.136 C 436.471 252.746 437.253 251.296 438.631 250.859 C 441.733 249.949 444.784 248.882 447.78 247.73 L 447.78 247.73 Z"/>
    <path d="M 428.97 325.64 C 430.064 322.382 435.228 323.773 434.134 327.062 C 433.572 328.691 432.638 330.644 430.708 330.937 C 429.376 331.304 427.99 330.597 427.501 329.304 C 427.017 328.015 427.595 326.566 428.833 325.964 C 428.888 325.828 428.97 325.64 428.97 325.64 L 428.97 325.64 Z"/>
    <path d="M 407.65 233.02 C 409.064 232.668 410.498 233.508 410.884 234.911 C 411.267 236.313 410.463 237.766 409.068 238.184 C 406.881 238.829 404.736 239.387 402.572 240.192 C 400.783 240.875 399.201 242.02 397.998 243.508 C 395.67 246.051 391.873 242.278 394.228 239.739 L 394.224 239.739 C 395.884 237.743 398.033 236.215 400.459 235.297 C 401.611 234.86 402.787 234.524 403.908 233.985 C 405.127 233.555 406.377 233.235 407.65 233.02 L 407.65 233.02 Z"/>
    <path d="M 390.21 226.82 C 392.698 224.441 396.495 228.211 393.98 230.59 L 393.98 230.593 C 392.569 231.836 391.05 232.945 389.436 233.91 C 386.55 235.808 383.87 231.179 386.737 229.281 C 387.96 228.554 389.12 227.734 390.21 226.82 L 390.21 226.82 Z"/>
    <path d="M 384.89 218.66 C 386.464 215.801 390.691 218.101 389.624 220.933 C 389.488 224.328 384.195 224.328 384.3 220.906 L 384.3 220.91 C 384.288 220.121 384.496 219.344 384.89 218.66 L 384.89 218.66 Z"/>
    <path d="M 357 333.67 C 357.195 334.35 357.109 335.08 356.766 335.697 C 356.418 336.318 355.84 336.772 355.156 336.959 C 353.738 337.307 352.297 336.486 351.867 335.092 C 350.434 332.666 349.422 330.014 348.871 327.252 C 348.656 323.803 354.004 323.83 354.219 327.252 C 354.43 328.295 354.852 329.287 355.453 330.17 C 356.035 331.307 356.555 332.475 357 333.67 L 357 333.67 Z"/>
    <path d="M 357 355.5 C 357.316 356.887 356.492 358.277 355.121 358.664 C 353.75 359.051 352.32 358.293 351.867 356.941 C 351.207 354.883 350.27 352.922 349.086 351.109 C 348.453 349.641 347.543 348.305 346.406 347.172 C 343.629 345.164 346.301 340.539 349.082 342.57 L 349.086 342.57 C 351.059 344.141 352.641 346.145 353.711 348.43 C 355.078 350.649 356.184 353.024 357 355.5 L 357 355.5 Z"/>
    <path d="M 329.8 246.96 C 330.335 243.566 335.488 245.007 334.937 248.382 C 334.277 253.796 332.519 259.019 329.773 263.734 C 327.902 266.593 323.273 263.921 325.144 261.031 C 327.636 256.703 329.218 251.918 329.8 246.961 L 329.8 246.96 Z"/>
    <path d="M 324.34 251.24 L 324.34 259.263 C 324.34 261.935 318.988 261.935 318.988 259.263 L 318.988 251.24 C 318.988 248.564 324.34 248.564 324.34 251.24 L 324.34 251.24 Z"/>
    <path d="M 303.16 261.27 C 306.609 261.457 306.609 266.809 303.16 266.622 C 299.098 266.407 295 266.184 290.91 266.184 C 289.476 266.126 288.34 264.946 288.34 263.508 C 288.34 262.071 289.476 260.891 290.91 260.833 C 295 260.84 299.098 261.055 303.16 261.27 L 303.16 261.27 Z"/>
    <path d="M 231.26 255.57 C 232.17 259.105 232.44 262.773 232.061 266.402 C 232.002 267.84 230.822 268.972 229.385 268.972 C 227.947 268.972 226.768 267.84 226.709 266.402 C 227.197 262.523 226.662 258.586 225.162 254.98 C 223.701 252.164 222.529 249.207 221.662 246.156 C 221.311 244.742 222.147 243.308 223.549 242.925 C 224.955 242.539 226.408 243.343 226.826 244.738 C 227.834 248.586 230.029 251.824 231.26 255.57 L 231.26 255.57 Z"/>
  </g>
</svg>